HIERARCHY
ROOT Hips
{
 OFFSET 0.000000 0.000000 0.000000
 CHANNELS 6 Xposition Yposition Zposition Yrotation Xrotation Zrotation
 JOINT Chest
 {
  OFFSET 0.000000 9.585900 0.002600
  CHANNELS 3 Yrotation Xrotation Zrotation
  JOINT Chest2
  {
   OFFSET 0.000000 9.601200 -0.005300
   CHANNELS 3 Yrotation Xrotation Zrotation
   JOINT Chest3
   {
    OFFSET 0.000000 9.561800 0.000000
    CHANNELS 3 Yrotation Xrotation Zrotation
    JOINT Chest4
    {
     OFFSET 0.000000 9.552100 0.000000
     CHANNELS 3 Yrotation Xrotation Zrotation
     JOINT Neck
     {
      OFFSET 0.000000 14.453000 0.000000
      CHANNELS 3 Yrotation Xrotation Zrotation
      JOINT Head
      {
       OFFSET 0.000000 8.936500 -0.011300
       CHANNELS 3 Yrotation Xrotation Zrotation
       End Site
       {
        OFFSET 0.000000 17.073600 -0.006000
       }
      }
     }
     JOINT RightCollar
     {
      OFFSET -2.921100 9.558500 0.000000
      CHANNELS 3 Yrotation Xrotation Zrotation
      JOINT RightShoulder
      {
       OFFSET -13.519700 0.000000 0.000000
       CHANNELS 3 Yrotation Xrotation Zrotation
       JOINT RightElbow
       {
        OFFSET 0.000000 -29.696600 0.000000
        CHANNELS 3 Yrotation Xrotation Zrotation
        JOINT RightWrist
        {
         OFFSET 0.000000 -24.004700 0.000000
         CHANNELS 3 Yrotation Xrotation Zrotation
         End Site
         {
          OFFSET 0.000000 -17.728500 0.000000
         }
        }
       }
      }
     }
     JOINT LeftCollar
     {
      OFFSET 2.921100 9.558500 0.000000
      CHANNELS 3 Yrotation Xrotation Zrotation
      JOINT LeftShoulder
      {
       OFFSET 13.519700 0.000000 0.000000
       CHANNELS 3 Yrotation Xrotation Zrotation
       JOINT LeftElbow
       {
        OFFSET 0.000000 -29.696600 0.000000
        CHANNELS 3 Yrotation Xrotation Zrotation
        JOINT LeftWrist
        {
         OFFSET 0.000000 -24.004700 0.000000
         CHANNELS 3 Yrotation Xrotation Zrotation
         End Site
         {
          OFFSET 0.000000 -17.728500 0.000000
         }
        }
       }
      }
     }
    }
   }
  }
 }
 JOINT RightHip
 {
  OFFSET -7.771700 -0.012900 -0.001300
  CHANNELS 3 Yrotation Xrotation Zrotation
  JOINT RightKnee
  {
   OFFSET 0.000000 -40.869800 0.001200
   CHANNELS 3 Yrotation Xrotation Zrotation
   JOINT RightAnkle
   {
    OFFSET 0.000000 -39.717900 0.002100
    CHANNELS 3 Yrotation Xrotation Zrotation
    JOINT RightToe
    {
     OFFSET 0.000000 -4.965400 11.033500
     CHANNELS 3 Yrotation Xrotation Zrotation
     End Site
     {
      OFFSET 0.000000 -1.423100 5.872300
     }
    }
   }
  }
 }
 JOINT LeftHip
 {
  OFFSET 7.771700 -0.012900 -0.001300
  CHANNELS 3 Yrotation Xrotation Zrotation
  JOINT LeftKnee
  {
   OFFSET 0.000000 -40.869800 0.001200
   CHANNELS 3 Yrotation Xrotation Zrotation
   JOINT LeftAnkle
   {
    OFFSET 0.000000 -39.717900 0.002100
    CHANNELS 3 Yrotation Xrotation Zrotation
    JOINT LeftToe
    {
     OFFSET 0.000000 -4.965400 11.033500
     CHANNELS 3 Yrotation Xrotation Zrotation
     End Site
     {
      OFFSET 0.000000 -1.423100 5.872300
     }
    }
   }
  }
 }
}
MOTION
Frames: 8
Frame Time: 0.008333
0.000000 85.388000 0.000000 0.000000 -5.767877 0.000000 0.000000 11.653817 0.000000 0.000000 -5.885947 0.000000 0.000000 -0.000000 0.000000 0.000000 -0.000000 0.000000 0.000000 12.528835 0.000000 0.000000 0.711642 0.000000 0.000000 -0.000000 0.000000 0.000000 0.000000 -90.000000 0.000000 -2.309062 0.000000 0.000000 2.309062 0.000000 0.000000 -0.000000 0.000000 0.000000 -0.000000 90.000000 0.000000 -2.309062 0.000000 0.000000 2.309062 0.000000 0.000000 8.520406 0.000000 0.000000 1.905762 0.000000 -0.000000 -4.658285 0.000000 0.000000 -0.000000 0.000000 0.000000 8.520406 0.000000 0.000000 1.905762 0.000000 -0.000000 -4.658285 0.000000 0.000000 -0.000000 0.000000
-74.226936 44.033140 21.857359 174.718108 -39.678833 0.194816 0.472676 20.780173 3.017349 -0.056509 2.705209 0.449436 -0.081396 4.419441 0.733553 0.021018 17.711384 2.977534 -0.246589 18.901918 -2.634188 0.338817 -5.745470 -2.737284 10.859738 -2.945381 -6.565744 12.279377 -17.712306 -4.470165 -160.316507 -65.704382 -178.881627 -4.804796 2.379446 -42.250336 -23.872110 -4.177899 -0.163632 -1.632804 -12.356504 -3.079559 178.997613 -59.318764 161.700900 10.876498 6.317697 42.619213 0.662364 -53.523741 8.992220 -132.063598 67.217705 -131.333990 -6.092794 -21.166079 6.833235 -0.082904 -1.080446 0.136351 1.510877 -43.201411 -2.905127 169.421660 64.280290 170.128529 0.614816 -32.506111 -0.622666 0.254630 0.558825 0.113526
-74.230392 44.044928 21.878632 174.724869 -39.717504 0.137129 0.544636 20.733784 3.072184 -0.052541 2.704919 0.447279 -0.075037 4.418918 0.730192 0.045670 17.711625 2.967164 -0.268136 18.923935 -2.617295 0.312071 -5.721609 -2.714531 10.841859 -2.970073 -6.562472 12.340025 -17.789632 -4.403416 -159.424524 -66.099560 -179.901393 -4.978755 2.297335 -42.247080 -23.877753 -4.175755 -0.168505 -1.551089 -12.353879 -3.072882 179.811000 -59.165219 161.249692 10.818121 6.308917 42.868941 0.690379 -53.486231 8.982697 -131.991882 67.321893 -131.214534 -6.068589 -20.938217 6.734935 -0.098149 -1.095530 0.157697 1.488714 -43.162302 -2.848900 169.357945 64.310927 170.082162 0.607783 -32.497236 -0.607753 0.241357 0.564575 0.106553
-74.235101 44.065635 21.897425 174.767247 -39.804011 0.056896 0.588975 20.733359 3.124756 -0.048000 2.704822 0.445159 -0.067712 4.418765 0.726799 0.074119 17.712520 2.957082 -0.290554 18.946810 -2.598959 0.284080 -5.696743 -2.689987 10.816401 -2.995549 -6.554229 12.441065 -17.879936 -4.356541 -158.390624 -66.515168 178.922318 -5.142524 2.195720 -42.269158 -23.891733 -4.178573 -0.173713 -1.493018 -12.351609 -3.055770 -179.483467 -59.034510 160.875764 10.785642 6.230374 43.194553 0.696401 -53.395538 8.963108 -132.000972 67.430424 -131.164245 -6.072743 -20.739336 6.643167 -0.099719 -1.088050 0.172576 1.412205 -43.072477 -2.777654 169.312836 64.342472 170.037481 0.604316 -32.485356 -0.596324 0.230076 0.575359 0.099169
-74.240750 44.097241 21.910908 174.842117 -39.949203 -0.039400 0.603488 20.787750 3.172104 -0.043239 2.704896 0.442897 -0.059916 4.418994 0.723126 0.104343 17.714086 2.946110 -0.311509 18.970251 -2.580595 0.257671 -5.671240 -2.665811 10.788421 -3.024166 -6.544980 12.583560 -17.974722 -4.326615 -157.214289 -66.952878 177.589210 -5.286225 2.062678 -42.302456 -23.911857 -4.186225 -0.179527 -1.458194 -12.356891 -3.032900 -178.904017 -58.952274 160.594309 10.767557 6.072080 43.579459 0.682325 -53.239917 8.933422 -132.036784 67.507720 -131.140060 -6.074050 -20.594221 6.569811 -0.089557 -1.050557 0.178788 1.311238 -42.919402 -2.713540 169.281862 64.370155 170.007259 0.605993 -32.461727 -0.591517 0.226167 0.538019 0.097710
-74.246697 44.132241 21.927412 174.980035 -40.077687 -0.174240 0.565259 20.820257 3.218136 -0.038801 2.704909 0.440456 -0.052583 4.419121 0.719206 0.095356 17.762488 2.958254 -0.301504 18.950496 -2.602405 0.237401 -5.643329 -2.645776 10.804110 -3.094841 -6.584853 12.757138 -18.067075 -4.313874 -155.861231 -67.413268 176.067692 -5.413152 1.882803 -42.333284 -23.896515 -4.246731 -0.201262 -1.430464 -12.380670 -2.999644 -178.450929 -58.933293 160.399211 10.749293 5.827553 44.026790 0.621755 -53.096372 8.897095 -132.073622 67.590241 -131.118552 -6.107867 -20.539542 6.516170 -0.059504 -0.923147 0.179970 1.165638 -42.783479 -2.652605 169.224891 64.413826 169.943566 0.642119 -32.379334 -0.581087 0.176438 0.475132 0.075514
-74.255252 44.169364 21.947328 175.060735 -40.176151 -0.251153 0.559842 20.816500 3.242000 -0.035166 2.704751 0.438026 -0.046691 4.418860 0.715341 0.137273 17.741282 2.932880 -0.322292 19.002261 -2.572266 0.208465 -5.594955 -2.599748 10.767351 -3.114257 -6.571820 12.946883 -18.159909 -4.315678 -154.221832 -67.888412 174.256013 -5.529952 1.648674 -42.354114 -23.937826 -4.215705 -0.201706 -1.403530 -12.432926 -2.951373 -178.078446 -58.981941 160.253570 10.728906 5.498692 44.568517 0.637589 -52.981246 8.815947 -132.094895 67.698484 -131.085983 -6.144940 -20.472901 6.483850 -0.032927 -0.800245 0.166343 1.080029 -42.677210 -2.617561 169.146437 64.470732 169.851037 0.636845 -32.330475 -0.556170 0.152257 0.459780 0.062872
-74.255022 44.212543 21.966119 175.111408 -40.282670 -0.348258 0.587792 20.813044 3.306262 -0.032584 2.704252 0.435632 -0.042637 4.418021 0.711488 0.170114 17.716081 2.907900 -0.332757 19.065246 -2.549142 0.185304 -5.544003 -2.556227 10.745574 -3.129928 -6.574527 13.144989 -18.261308 -4.326577 -152.122810 -68.361767 171.992288 -5.648884 1.366890 -42.361595 -23.969969 -4.175273 -0.206720 -1.397686 -12.518407 -2.895099 -177.733484 -59.104859 160.125269 10.716353 5.104633 45.201912 0.634345 -52.857754 8.783279 -132.176134 67.843898 -131.094711 -6.216516 -20.434668 6.458847 -0.006700 -0.663104 0.144139 0.969277 -42.556629 -2.524898 169.114589 64.510572 169.808650 0.654729 -32.298761 -0.551642 0.132796 0.434271 0.052521
